<svg width="0" height="0" class="hidden">
  <symbol version="1.0" xmlns="http://www.w3.org/2000/svg" preserveAspectRatio="xMidYMid meet" viewBox="0 0 512.000000 512.000000" id="location">
    <g transform="translate(0.000000,512.000000) scale(0.100000,-0.100000)" fill="#000000" stroke="none">
      <path d="M2435 5114 c-16 -2 -68 -9 -115 -15 -561 -75 -1080 -487 -1290 -1026
-84 -214 -114 -375 -114 -618 -1 -244 40 -440 135 -656 51 -116 51 -117 378
-629 149 -233 267 -427 263 -431 -4 -4 -52 -14 -107 -24 -369 -65 -748 -198
-965 -341 -219 -143 -335 -350 -303 -539 34 -197 194 -370 468 -504 714 -351
2020 -434 3003 -191 426 105 760 273 904 453 195 246 140 533 -143 746 -205
155 -612 306 -1014 376 -55 10 -103 20 -107 24 -4 4 123 211 283 461 160 250
310 496 334 545 60 126 101 247 132 394 23 110 27 150 27 306 0 99 -6 216 -13
260 -112 713 -656 1268 -1361 1390 -84 15 -338 27 -395 19z m392 -323 c512
-105 913 -493 1042 -1006 77 -310 38 -656 -106 -932 -47 -89 -1193 -1893
-1203 -1893 -3 0 -219 336 -480 747 -261 410 -526 825 -588 922 -62 97 -129
210 -149 251 -276 578 -105 1278 406 1664 198 149 420 237 681 270 79 10 298
-3 397 -23z m-662 -3776 c203 -317 290 -446 314 -462 46 -31 116 -31 162 0 24
16 112 145 314 462 l281 440 39 -3 c22 -1 94 -12 160 -23 468 -79 818 -213
986 -379 117 -116 117 -186 1 -300 -218 -212 -717 -366 -1397 -432 -171 -16
-771 -16 -935 0 -365 37 -639 89 -885 168 -238 76 -401 161 -507 264 -109 106
-114 177 -20 281 134 149 451 287 848 368 164 34 321 60 344 57 8 0 141 -199
295 -441z"></path>
      <path d="M2465 4204 c-11 -2 -45 -9 -75 -15 -217 -44 -429 -224 -522 -444 -41
-97 -53 -162 -53 -285 0 -123 12 -188 53 -285 93 -219 290 -387 522 -446 71
-18 269 -18 340 0 232 59 429 227 522 446 41 97 53 162 53 285 0 65 -6 139
-14 170 -68 269 -277 482 -546 557 -51 14 -243 26 -280 17z m176 -304 c235
-45 399 -275 361 -506 -32 -196 -180 -344 -376 -376 -289 -48 -556 219 -508
508 42 252 277 420 523 374z"></path>
    </g>
  </symbol>
  <symbol version="1.0" xmlns="http://www.w3.org/2000/svg" preserveAspectRatio="xMidYMid meet" viewBox="0 0 512.000000 512.000000" id="mail">
    <g transform="translate(0.000000,512.000000) scale(0.100000,-0.100000)" fill="#000000" stroke="none">
      <path d="M193 4256 c-94 -30 -161 -98 -183 -187 -7 -31 -10 -488 -8 -1534 l3
-1490 30 -54 c17 -30 48 -67 69 -83 86 -62 -81 -58 2456 -58 2537 0 2370 -4
2456 58 21 16 53 53 69 83 l30 54 0 1515 0 1515 -30 54 c-16 30 -48 67 -69 83
-86 62 82 58 -2460 57 -1880 0 -2329 -3 -2363 -13z m4547 -200 c-8 -7 -475
-358 -1037 -779 -685 -514 -1034 -769 -1060 -776 -49 -14 -117 -14 -166 0 -26
7 -375 262 -1060 776 -562 421 -1029 772 -1037 779 -12 12 314 14 2180 14
1866 0 2192 -2 2180 -14z m-3460 -921 c580 -435 1074 -799 1098 -808 24 -10
74 -23 112 -29 84 -14 187 0 265 36 27 13 525 380 1105 815 l1055 792 3 -685
c1 -377 1 -994 0 -1370 l-3 -685 -555 685 c-305 377 -562 690 -571 695 -27 14
-77 11 -104 -7 -28 -19 -47 -67 -39 -101 4 -14 260 -339 570 -722 l564 -696
-1110 -3 c-611 -1 -1609 -1 -2220 0 l-1110 3 564 696 c310 383 566 708 570
722 8 34 -11 82 -39 101 -25 16 -71 21 -100 10 -8 -4 -264 -313 -567 -688
-303 -374 -555 -685 -559 -690 -5 -6 -9 584 -9 1363 0 1095 3 1371 13 1365 6
-5 487 -364 1067 -799z"></path>
    </g>
  </symbol>
  <symbol version="1.0" xmlns="http://www.w3.org/2000/svg" preserveAspectRatio="xMidYMid meet" viewBox="0 0 512.000000 512.000000" id="phone-call">
    <g transform="translate(0.000000,512.000000) scale(0.100000,-0.100000)" fill="#000000" stroke="none">
      <path d="M2770 5102 c-98 -49 -107 -188 -15 -248 14 -9 82 -29 153 -45 214
-47 320 -82 512 -169 275 -125 519 -298 746 -531 328 -337 543 -741 643 -1210
27 -127 34 -143 73 -172 63 -46 140 -42 191 11 46 48 49 79 21 215 -200 984
-945 1798 -1909 2086 -110 33 -322 81 -357 81 -13 0 -39 -8 -58 -18z"></path>
      <path d="M839 4801 c-128 -41 -235 -130 -535 -448 -215 -227 -273 -342 -293
-571 -29 -326 81 -739 324 -1217 102 -202 148 -281 278 -475 490 -734 1133
-1319 1892 -1723 430 -229 794 -346 1125 -363 234 -13 442 53 598 188 19 16
134 131 256 257 202 207 225 235 264 312 75 150 76 285 1 439 -41 83 -51 94
-413 456 -351 352 -375 374 -447 408 -153 72 -310 65 -459 -21 -25 -15 -138
-118 -252 -231 l-207 -204 -99 53 c-440 232 -1018 814 -1232 1240 l-39 76 192
194 c205 207 255 269 288 363 44 128 35 250 -28 379 -33 66 -67 103 -407 443
-387 387 -418 413 -536 448 -72 21 -200 20 -271 -3z m224 -291 c62 -29 709
-679 736 -740 52 -115 30 -153 -244 -425 -123 -121 -230 -235 -240 -254 -28
-56 -16 -157 30 -255 129 -274 337 -550 654 -866 261 -261 529 -462 800 -601
113 -59 128 -64 185 -63 39 0 74 7 96 18 19 10 136 119 260 241 124 122 240
230 259 240 50 25 138 17 188 -18 71 -49 679 -669 703 -716 29 -58 29 -124 0
-182 -22 -42 -344 -380 -455 -476 -160 -140 -385 -157 -755 -57 -270 73 -687
275 -1030 499 -730 478 -1398 1251 -1736 2010 -217 488 -270 862 -156 1095 20
42 81 110 257 288 145 148 247 243 275 257 56 30 117 31 173 5z"></path>
      <path d="M2722 4170 c-68 -42 -92 -132 -52 -197 28 -46 52 -58 173 -88 277
-68 500 -195 689 -394 179 -187 300 -413 353 -656 21 -94 35 -126 71 -154 81
-64 211 -17 229 83 15 76 -60 337 -147 510 -223 450 -627 774 -1113 892 -121
29 -160 30 -203 4z"></path>
    </g>
  </symbol>

  <symbol xmlns="http://www.w3.org/2000/svg" viewBox="0 0 30 30" id="icons8-facebook">
    <path fill="#8bb7f0" d="M2.5 2.5H27.5V27.5H2.5z"></path>
    <path fill="#4e7ab5" d="M27,3v24H3V3H27 M28,2H2v26h26V2L28,2z"></path>
    <path fill="#fff" d="M20,27v-9h3.424l0.504-4H20v-2.444c0-1.132,0.37-1.904,1.994-1.904L24,9.651V6.154	C23.642,6.106,22.477,6,21.047,6C18.062,6,16,7.822,16,11.169V14h-3.358v4H16v9H20z"></path>
  </symbol>
  <symbol xmlns="http://www.w3.org/2000/svg" viewBox="0 0 30 30" id="icons8-instagram">
    <path fill="#8d8dd8" d="M22.5,1.5h-15c-3.3,0-6,2.7-6,6v15c0,3.3,2.7,6,6,6h15c3.3,0,6-2.7,6-6v-15 C28.5,4.2,25.8,1.5,22.5,1.5z"></path>
    <path fill="#8585cc" d="M27.9,5c-0.9-2.1-3-3.5-5.4-3.5h-4.1C21.8,2.1,25,3.3,27.9,5z"></path>
    <path fill="#bd82f4" d="M1.5,7.5v15c0,3.3,2.7,6,6,6h15c3.3,0,6-2.7,6-6V8.9C24.1,5.8,18.8,4,13,4C8.8,4,4.8,5,1.3,6.7 C1.4,6.9,1.5,7.2,1.5,7.5z"></path>
    <path fill="#ed73f4" d="M1.5,22.5c0,3.3,2.7,6,6,6h15c3.3,0,6-2.7,6-6v-9.8C24.3,9.1,18.9,7,13,7C8.8,7,4.9,8.1,1.5,9.9V22.5 z"></path>
    <path fill="#f97dcd" d="M1.5,22.5c0,3.3,2.7,6,6,6h15c3.3,0,6-2.7,6-6v-5.6C24.7,12.7,19.1,10,13,10c-4.2,0-8.2,1.3-11.5,3.4 V22.5z"></path>
    <path fill="#fc9c95" d="M1.5,22.5c0,3.3,2.7,6,6,6h15c3.3,0,6-2.7,6-6v-0.6C25.4,16.6,19.6,13,13,13 c-4.4,0-8.4,1.6-11.5,4.2V22.5z"></path>
    <path fill="#ffac99" d="M1.5,22.5c0,3.3,2.7,6,6,6h15c1.9,0,3.6-0.9,4.7-2.3C25.2,20.3,19.6,16,13,16 c-4.6,0-8.7,2.1-11.5,5.4V22.5z"></path>
    <path fill="#ffc49c" d="M7.5,28.5h15c0.8,0,1.5-0.1,2.1-0.4c-1.3-5.2-6-9.1-11.6-9.1c-4.7,0-8.7,2.7-10.7,6.5 C3.4,27.3,5.3,28.5,7.5,28.5z"></path>
    <path fill="#ffde8d" d="M7.5,28.5h14.1C20.6,24.7,17.1,22,13,22c-3.8,0-7.1,2.4-8.4,5.8C5.5,28.2,6.5,28.5,7.5,28.5z"></path>
    <path fill="#fff69f" d="M18.4,28.5c-0.9-2.1-3-3.5-5.4-3.5s-4.5,1.4-5.4,3.5H18.4z"></path>
    <path fill="#8b75a1" d="M23,2c2.8,0,5,2.2,5,5v16c0,2.8-2.2,5-5,5H7c-2.8,0-5-2.2-5-5V7c0-2.8,2.2-5,5-5H23 M23,1H7 C3.7,1,1,3.7,1,7v16c0,3.3,2.7,6,6,6h16c3.3,0,6-2.7,6-6V7C29,3.7,26.3,1,23,1L23,1z"></path>
    <path fill="#fff" d="M19,25h-8c-3.3,0-6-2.7-6-6v-8c0-3.3,2.7-6,6-6h8c3.3,0,6,2.7,6,6v8C25,22.3,22.3,25,19,25z M11,7 c-2.2,0-4,1.8-4,4v8c0,2.2,1.8,4,4,4h8c2.2,0,4-1.8,4-4v-8c0-2.2-1.8-4-4-4H11z"></path>
    <path fill="#fff" d="M15 20c-2.8 0-5-2.2-5-5s2.2-5 5-5 5 2.2 5 5S17.8 20 15 20zM15 12c-1.7 0-3 1.3-3 3s1.3 3 3 3 3-1.3 3-3S16.7 12 15 12zM20 9A1 1 0 1 0 20 11 1 1 0 1 0 20 9z"></path>
  </symbol>
  <symbol xmlns="http://www.w3.org/2000/svg" viewBox="0 0 30 30" id="icons8-twitter">
    <path fill="#c2e8ff" d="M9.8,25.9c-2.4,0-4.7-0.5-6.8-1.5c2.5-0.1,4.8-1,6.8-2.5l1.1-0.9l-1.4,0c-2,0-3.7-1.2-4.6-2.9 c0.1,0,0.2,0,0.3,0c0.6,0,1.1-0.1,1.6-0.2l2-0.6l-2.1-0.4c-2.2-0.4-3.8-2.2-4.2-4.4c0.6,0.2,1.3,0.4,2,0.4l1.7,0.1l-1.5-1 c-1.5-1-2.3-2.6-2.3-4.4c0-0.7,0.1-1.4,0.4-2c3,3.3,7.2,5.4,11.7,5.6l0.7,0l-0.1-0.6c-0.1-0.4-0.1-0.8-0.1-1.2 c0-2.9,2.4-5.2,5.2-5.2c1.4,0,2.8,0.6,3.8,1.7L24.4,6l0.3-0.1c0.9-0.2,1.7-0.4,2.5-0.8c-0.4,0.7-1,1.2-1.7,1.6L25.1,7l0.4,0.7 l0.4,0c0.6-0.1,1.1-0.2,1.7-0.3c-0.5,0.6-1.1,1.1-1.7,1.5L25.6,9l0,0.3c0,0.2,0,0.5,0,0.7C25.6,17.8,19.7,25.9,9.8,25.9z"></path>
    <path fill="#7496c4" d="M20.4,4.6c1.3,0,2.6,0.5,3.5,1.5l0.4,0.4l0.5-0.1c0.2,0,0.4-0.1,0.5-0.1c0,0,0,0-0.1,0l-0.8,0.5 l0.4,0.8l0.3,0.6l0.7-0.1c0,0,0,0,0,0c-0.1,0.1-0.2,0.2-0.4,0.3l-0.4,0.3l0,0.5c0,0.2,0,0.5,0,0.7c0,3.7-1.4,7.5-4,10.4 c-2,2.3-5.6,5-11.4,5c-1.6,0-3.3-0.3-4.8-0.8c1.9-0.4,3.6-1.2,5.1-2.4l2.2-1.7l-2.8-0.1c-1.5,0-2.9-0.8-3.7-1.9 c0.4,0,0.8-0.1,1.2-0.2l4.1-1.1l-4.1-0.8c-1.7-0.3-3.1-1.6-3.6-3.2c0.4,0.1,0.9,0.2,1.3,0.2l3.5,0.1l-2.9-1.9 C4,10.6,3.2,9.2,3.2,7.6c0-0.3,0-0.7,0.1-1c3,3.1,7.1,4.9,11.5,5.1l1.3,0.1l-0.3-1.3c-0.1-0.4-0.1-0.7-0.1-1.1 C15.6,6.8,17.8,4.6,20.4,4.6 M20.4,3.6c-3.2,0-5.7,2.6-5.7,5.7c0,0.4,0.1,0.9,0.1,1.3c-4.8-0.2-9-2.5-11.8-6 C2.5,5.5,2.2,6.5,2.2,7.6c0,2,1,3.8,2.6,4.8c-0.9,0-1.8-0.3-2.6-0.7c0,0,0,0,0,0.1c0,2.8,2,5.1,4.6,5.6c-0.5,0.1-1,0.2-1.5,0.2 c-0.4,0-0.7,0-1.1-0.1c0.7,2.3,2.9,3.9,5.4,4c-2,1.5-4.4,2.5-7.1,2.5c-0.5,0-0.9,0-1.4-0.1c2.5,1.6,5.6,2.6,8.8,2.6 c10.6,0,16.3-8.8,16.3-16.3c0-0.2,0-0.5,0-0.7c1.1-0.8,2.1-1.8,2.9-3c-1,0.5-2.1,0.8-3.2,0.9l0,0c1.2-0.7,2-1.8,2.5-3.1 c-1.1,0.7-2.3,1.1-3.6,1.4C23.5,4.3,22,3.6,20.4,3.6L20.4,3.6z"></path>
    <path fill="#7496c4" d="M25.1,9.3C25.1,8,24.7,7,24,6.2l0.7-0.7c0.9,0.9,1.3,2.2,1.4,3.7L25.1,9.3z"></path>
  </symbol>
</svg>